name ./resultDataOpenSim/trcMotMarkerGrf/sub09/grf-13-02.mot
datacolumns 19
datarows 20
range 0.52000000 0.59600000
endheader

                time	     ground_force_vx	     ground_force_vy	     ground_force_vz	     ground_force_px	     ground_force_py	     ground_force_pz	   l_ground_force_vx	   l_ground_force_vy	   l_ground_force_vz	   l_ground_force_px	   l_ground_force_py	   l_ground_force_pz	     ground_torque_x	     ground_torque_y	     ground_torque_z	   l_ground_torque_x	   l_ground_torque_y	   l_ground_torque_z	
          0.52000000	         29.78017515	        505.55751320	        -13.08790545	         -0.68861420	          0.00000000	          0.06542617	          0.00000000	          0.00000000	          0.00000000	          0.00000000	          0.00000000	          0.00000000	          0.00000000	          6.74883365	          0.00000000	          0.00000000	          0.00000000	          0.00000000	
          0.52400000	         31.45770251	        512.00793759	        -13.77035664	         -0.68767951	          0.00000000	          0.06585805	          0.00000000	          0.00000000	          0.00000000	          0.00000000	          0.00000000	          0.00000000	          0.00000000	          7.01541879	          0.00000000	          0.00000000	          0.00000000	          0.00000000	
          0.52800000	         33.59784549	        518.22731185	        -15.29322481	         -0.68659719	          0.00000000	          0.06643232	          0.00000000	          0.00000000	          0.00000000	          0.00000000	          0.00000000	          0.00000000	          0.00000000	          7.15274291	          0.00000000	          0.00000000	          0.00000000	          0.00000000	
          0.53200000	         36.30529444	        524.27674193	        -17.49915892	         -0.68537415	          0.00000000	          0.06712816	          0.00000000	          0.00000000	          0.00000000	          0.00000000	          0.00000000	          0.00000000	          0.00000000	          7.18027896	          0.00000000	          0.00000000	          0.00000000	          0.00000000	
          0.53600000	         39.50314592	        530.29584964	        -20.14782070	         -0.68404651	          0.00000000	          0.06789830	          0.00000000	          0.00000000	          0.00000000	          0.00000000	          0.00000000	          0.00000000	          0.00000000	          7.13434894	          0.00000000	          0.00000000	          0.00000000	          0.00000000	
          0.54000000	         42.97496191	        536.38699291	        -22.97443217	         -0.68265580	          0.00000000	          0.06869515	          0.00000000	          0.00000000	          0.00000000	          0.00000000	          0.00000000	          0.00000000	          0.00000000	          7.05858441	          0.00000000	          0.00000000	          0.00000000	          0.00000000	
          0.54400000	         46.45714092	        542.50856853	        -25.72761457	         -0.68115769	          0.00000000	          0.06949724	          0.00000000	          0.00000000	          0.00000000	          0.00000000	          0.00000000	          0.00000000	          0.00000000	          6.99294357	          0.00000000	          0.00000000	          0.00000000	          0.00000000	
          0.54800000	         49.71335308	        548.55021353	        -28.20540824	         -0.67942360	          0.00000000	          0.07030644	          0.00000000	          0.00000000	          0.00000000	          0.00000000	          0.00000000	          0.00000000	          0.00000000	          6.96412787	          0.00000000	          0.00000000	          0.00000000	          0.00000000	
          0.55200000	         52.59892198	        554.55855135	        -30.30206955	         -0.67738159	          0.00000000	          0.07111064	          0.00000000	          0.00000000	          0.00000000	          0.00000000	          0.00000000	          0.00000000	          0.00000000	          6.97969586	          0.00000000	          0.00000000	          0.00000000	          0.00000000	
          0.55600000	         55.12514579	        560.85528199	        -32.03482906	         -0.67514796	          0.00000000	          0.07185919	          0.00000000	          0.00000000	          0.00000000	          0.00000000	          0.00000000	          0.00000000	          0.00000000	          7.02699875	          0.00000000	          0.00000000	          0.00000000	          0.00000000	
          0.56000000	         57.45878765	        567.88762818	        -33.52848616	         -0.67296547	          0.00000000	          0.07249042	          0.00000000	          0.00000000	          0.00000000	          0.00000000	          0.00000000	          0.00000000	          0.00000000	          7.07688445	          0.00000000	          0.00000000	          0.00000000	          0.00000000	
          0.56400000	         59.83182601	        575.94444791	        -34.96695514	         -0.67099381	          0.00000000	          0.07297939	          0.00000000	          0.00000000	          0.00000000	          0.00000000	          0.00000000	          0.00000000	          0.00000000	          7.09128987	          0.00000000	          0.00000000	          0.00000000	          0.00000000	
          0.56800000	         62.44639645	        585.00551668	        -36.53321449	         -0.66919408	          0.00000000	          0.07335148	          0.00000000	          0.00000000	          0.00000000	          0.00000000	          0.00000000	          0.00000000	          0.00000000	          7.03324718	          0.00000000	          0.00000000	          0.00000000	          0.00000000	
          0.57200000	         65.44313902	        594.86405005	        -38.35537528	         -0.66742463	          0.00000000	          0.07365180	          0.00000000	          0.00000000	          0.00000000	          0.00000000	          0.00000000	          0.00000000	          0.00000000	          6.87727868	          0.00000000	          0.00000000	          0.00000000	          0.00000000	
          0.57600000	         68.89648009	        605.38884660	        -40.46016869	         -0.66563295	          0.00000000	          0.07389535	          0.00000000	          0.00000000	          0.00000000	          0.00000000	          0.00000000	          0.00000000	          0.00000000	          6.61779284	          0.00000000	          0.00000000	          0.00000000	          0.00000000	
          0.58000000	         72.79404267	        616.62378067	        -42.73582645	         -0.66393911	          0.00000000	          0.07404190	          0.00000000	          0.00000000	          0.00000000	          0.00000000	          0.00000000	          0.00000000	          0.00000000	          6.27327286	          0.00000000	          0.00000000	          0.00000000	          0.00000000	
          0.58400000	         77.01275180	        628.60257525	        -44.93531925	         -0.66248807	          0.00000000	          0.07403321	          0.00000000	          0.00000000	          0.00000000	          0.00000000	          0.00000000	          0.00000000	          0.00000000	          5.88497144	          0.00000000	          0.00000000	          0.00000000	          0.00000000	
          0.58800000	         81.32977510	        641.12390227	        -46.72949338	         -0.66124532	          0.00000000	          0.07385973	          0.00000000	          0.00000000	          0.00000000	          0.00000000	          0.00000000	          0.00000000	          0.00000000	          5.51025559	          0.00000000	          0.00000000	          0.00000000	          0.00000000	
          0.59200000	         85.49510151	        653.79316401	        -47.77595601	         -0.66002194	          0.00000000	          0.07355334	          0.00000000	          0.00000000	          0.00000000	          0.00000000	          0.00000000	          0.00000000	          0.00000000	          5.21204520	          0.00000000	          0.00000000	          0.00000000	          0.00000000	
          0.59600000	         89.33767617	        666.28826558	        -47.78910763	         -0.65869438	          0.00000000	          0.07314122	          0.00000000	          0.00000000	          0.00000000	          0.00000000	          0.00000000	          0.00000000	          0.00000000	          5.04648671	          0.00000000	          0.00000000	          0.00000000	          0.00000000	
